<?xml version="1.0" encoding="UTF-8"?>
<!-- Generator: visioncortex VTracer 0.6.3 -->
<svg version="1.1" xmlns="http://www.w3.org/2000/svg" width="1280" height="1280">
<path d="M0 0 C0 0.66 0 1.32 0 2 C0.9 2.19 0.9 2.19 1.81 2.38 C4 3 4 3 7 5 C7 5.66 7 6.32 7 7 C7.8 7.31 7.8 7.31 8.62 7.62 C11.92 9.53 14.59 12.05 17 15 C17 15.66 17 16.32 17 17 C17.66 17 18.32 17 19 17 C21.27 20.16 23.1 23.6 25 27 C25.39 27.69 25.78 28.38 26.18 29.09 C30.64 37.51 32.46 45.68 32.29 55.16 C32.29 56.08 32.28 57 32.28 57.95 C32.26 60.84 32.23 63.73 32.19 66.62 C32.17 68.6 32.16 70.58 32.15 72.56 C32.11 77.37 32.06 82.19 32 87 C32.66 86.98 33.33 86.97 34.01 86.95 C68.97 86.24 68.97 86.24 82 92.97 C84.3 94.15 86.64 95.03 89.06 95.94 C93.65 97.75 98.16 99.85 102 103 C102 103.66 102 104.32 102 105 C102.99 105 103.98 105 105 105 C105 105.66 105 106.32 105 107 C105.57 107.26 106.14 107.52 106.73 107.78 C109.21 109.11 111.13 110.65 113.25 112.5 C113.96 113.11 114.66 113.72 115.39 114.34 C117 116 117 116 117 118 C117.66 118 118.32 118 119 118 C126.2 126.5 131.4 135.75 135.03 146.22 C136.85 151.42 138.98 156.5 141.06 161.6 C141.99 163.97 142.69 166.35 143.38 168.79 C146.16 178.83 146.16 178.83 150 188.5 C152.12 193.03 153.51 197.68 154.93 202.46 C157.6 211.31 160.54 220.04 164.05 228.59 C165.91 233.32 167.42 238.17 169 243 C170.16 246.54 171.33 250.08 172.5 253.62 C172.78 254.5 173.07 255.37 173.36 256.26 C174.82 260.67 176.37 265 178.12 269.3 C179.51 272.69 180.65 276 181.5 279.56 C182.6 283.82 184.1 287.59 185.96 291.56 C187.65 295.53 188.77 299.67 190 303.8 C190.89 306.65 191.91 309.37 193.06 312.12 C194.5 315.57 195.57 318.95 196.5 322.56 C197.61 326.83 199.1 330.6 200.98 334.58 C202.15 337.36 202.94 340.16 203.75 343.06 C205.59 349.31 208.25 354.88 211.27 360.62 C212.91 363.73 214.24 366.57 215 370 C215.66 370 216.32 370 217 370 C218.02 371.65 219.02 373.32 220 375 C232.99 391.26 250.49 401.04 269 410 C269 410.66 269 411.32 269 412 C269.7 412.09 270.4 412.18 271.12 412.27 C274.64 413.16 277.07 414.72 280.12 416.69 C281.28 417.42 282.44 418.15 283.6 418.88 C284.46 419.42 284.46 419.42 285.34 419.98 C288.57 421.96 291.92 423.72 295.26 425.5 C298.19 427.1 301.06 428.79 303.94 430.5 C309.82 433.96 315.86 437.03 322 440 C322 440.66 322 441.32 322 442 C323.65 442.33 325.3 442.66 327 443 C327 443.66 327 444.32 327 445 C327.69 445.09 328.39 445.19 329.11 445.29 C332.59 446.15 335.22 447.62 338.31 449.44 C339.38 450.05 340.45 450.67 341.55 451.31 C342.36 451.87 343.17 452.42 344 453 C344 453.66 344 454.32 344 455 C344.84 455.34 344.84 455.34 345.69 455.69 C348.7 457.39 350.63 459.47 353 462 C353.81 462.8 353.81 462.8 354.63 463.61 C362.5 471.84 369.24 484.26 369.26 495.8 C369.27 497.5 369.27 497.5 369.28 499.24 C369.28 500.47 369.28 501.7 369.27 502.96 C369.28 504.27 369.28 505.58 369.29 506.92 C369.3 510.49 369.3 514.07 369.3 517.64 C369.3 520.63 369.31 523.61 369.31 526.6 C369.32 533.65 369.32 540.7 369.32 547.75 C369.31 555.01 369.32 562.27 369.34 569.53 C369.36 575.78 369.37 582.02 369.36 588.27 C369.36 591.99 369.36 595.72 369.38 599.44 C369.39 603.6 369.38 607.75 369.37 611.91 C369.38 613.75 369.38 613.75 369.4 615.63 C369.36 621.91 368.99 626.45 366 632 C365.35 633.64 365.35 633.64 364.69 635.31 C362.63 640.1 360.05 644.78 357 649 C356.34 649 355.68 649 355 649 C354.64 649.86 354.64 649.86 354.27 650.75 C352.75 653.45 350.97 655.04 348.62 657.06 C347.85 657.73 347.08 658.41 346.29 659.1 C340.39 664 340.39 664 337 664 C337 664.66 337 665.32 337 666 C336.22 666.28 335.44 666.55 334.63 666.84 C333.62 667.2 332.61 667.56 331.56 667.94 C330.55 668.3 329.54 668.66 328.5 669.03 C326.1 669.77 326.1 669.77 325 671 C317.11 673.01 309.29 673.3 301.18 673.32 C299.34 673.33 299.34 673.33 297.46 673.35 C294.12 673.37 290.78 673.39 287.44 673.4 C283.94 673.42 280.44 673.45 276.94 673.47 C270.32 673.52 263.7 673.56 257.09 673.59 C249.55 673.63 242.01 673.68 234.47 673.73 C218.98 673.83 203.49 673.92 188 674 C187.98 674.64 187.96 675.29 187.94 675.95 C187.84 678.93 187.73 681.9 187.62 684.88 C187.59 685.89 187.56 686.9 187.53 687.95 C187.21 696.4 186.19 704.14 183 712 C182.88 713.07 182.75 714.14 182.62 715.25 C181.98 719.12 180.82 721.99 179.14 725.5 C178.06 727.86 177.14 730.23 176.23 732.66 C174.05 738.14 171.25 743.09 168.19 748.12 C167.69 748.97 167.2 749.81 166.69 750.68 C163.29 756.32 159.46 761.17 155 766 C154.35 766.75 153.7 767.51 153.03 768.29 C144.95 777.66 144.95 777.66 141 781 C140.34 781 139.68 781 139 781 C139 781.66 139 782.32 139 783 C137.68 783.33 136.36 783.66 135 784 C135 784.66 135 785.32 135 786 C132.64 787.73 130.27 789.35 127.81 790.94 C127.14 791.38 126.47 791.82 125.77 792.28 C123.86 793.53 121.93 794.77 120 796 C119.08 796.6 118.15 797.2 117.2 797.82 C115 799 115 799 112 799 C112 799.66 112 800.32 112 801 C108.67 802.33 105.33 803.67 102 805 C101.27 805.31 100.55 805.62 99.8 805.94 C93.69 808.49 87.65 810.27 81.19 811.69 C80.22 811.9 79.26 812.12 78.26 812.34 C71.17 813.86 64.26 814.88 57 815 C55.21 815.04 55.21 815.04 53.38 815.08 C49.58 815.12 45.8 815.08 42 815 C40.9 814.98 39.81 814.97 38.68 814.95 C10.11 813.77 -21.12 800.7 -42 781 C-42 780.34 -42 779.68 -42 779 C-42.54 778.79 -43.07 778.59 -43.62 778.38 C-46.92 776.47 -49.59 773.95 -52 771 C-52 770.34 -52 769.68 -52 769 C-52.66 769 -53.32 769 -54 769 C-59 763.52 -59 763.52 -59 761 C-59.66 761 -60.32 761 -61 761 C-64 756.62 -64 756.62 -64 754 C-64.66 754 -65.32 754 -66 754 C-68.04 751.09 -69 749.6 -69 746 C-69.66 746 -70.32 746 -71 746 C-75.61 737.28 -79.7 728.93 -82.31 719.38 C-82.77 717.07 -82.77 717.07 -84 716 C-84.75 713 -85.4 710.03 -86 707 C-86.25 705.74 -86.5 704.48 -86.76 703.18 C-87.03 701.77 -87.3 700.35 -87.56 698.94 C-87.69 698.3 -87.82 697.66 -87.95 697 C-89.35 689.28 -89.5 682 -90 674 C-228.6 674 -367.2 674 -510 674 C-510.33 679.61 -510.66 685.22 -511 691 C-511.33 691.99 -511.66 692.98 -512 694 C-512.1 695.52 -512.18 697.04 -512.25 698.56 C-512.7 703.96 -513.88 708.99 -515.31 714.19 C-515.51 714.94 -515.71 715.68 -515.92 716.45 C-517.21 720.98 -518.87 725.05 -521.09 729.21 C-522.18 731.26 -522.18 731.26 -523.31 734.62 C-525.96 739.92 -530.45 743.83 -536 746 C-538.91 746.23 -538.91 746.23 -542.06 746.19 C-543.11 746.18 -544.15 746.17 -545.22 746.17 C-548 746 -548 746 -551 745 C-551.33 744.34 -551.66 743.68 -552 743 C-552.33 743.99 -552.66 744.98 -553 746 C-555.27 751.48 -559.24 755.6 -564 759 C-564.33 759.66 -564.66 760.32 -565 761 C-567.57 764.86 -569.61 764.94 -574 766 C-574 766.99 -574 767.98 -574 769 C-574.99 769.33 -575.98 769.66 -577 770 C-576.34 770.33 -575.68 770.66 -575 771 C-572.3 775.66 -572.18 780.8 -573 786 C-576.19 795.09 -582.65 798.96 -591 803 C-592.13 803.56 -593.27 804.11 -594.44 804.69 C-599.89 806.7 -605.43 808.36 -611 810 C-612.31 810.42 -612.31 810.42 -613.65 810.85 C-644.32 820.21 -680.95 815.76 -709.48 801.79 C-711.7 800.59 -713.85 799.32 -716 798 C-717.1 797.33 -718.2 796.67 -719.33 795.98 C-723.59 793.38 -727.84 790.77 -732 788 C-732 787.34 -732 786.68 -732 786 C-732.68 785.79 -733.36 785.59 -734.06 785.38 C-737.92 783.57 -741.08 781.1 -744 778 C-744 777.34 -744 776.68 -744 776 C-744.64 775.73 -745.28 775.46 -745.94 775.19 C-748 774 -748 774 -749 771 C-749.66 771 -750.32 771 -751 771 C-752.95 768.88 -752.95 768.88 -755.12 766.12 C-756.21 764.77 -756.21 764.77 -757.32 763.38 C-759 761 -759 761 -759 759 C-759.66 759 -760.32 759 -761 759 C-762.52 756.95 -762.52 756.95 -764.25 754.12 C-764.87 753.12 -765.49 752.11 -766.13 751.07 C-766.75 750.06 -767.36 749.05 -768 748 C-768.55 747.14 -769.09 746.28 -769.65 745.39 C-773.15 739.79 -775.73 734.19 -778 728 C-778.49 726.77 -778.49 726.77 -778.99 725.52 C-784.21 712.13 -786.94 697.94 -787.56 683.62 C-787.61 682.7 -787.65 681.77 -787.69 680.82 C-787.8 678.54 -787.9 676.27 -788 674 C-788.88 673.99 -789.76 673.98 -790.67 673.98 C-798.99 673.9 -807.32 673.81 -815.64 673.71 C-819.92 673.66 -824.2 673.62 -828.48 673.58 C-832.62 673.54 -836.76 673.49 -840.89 673.44 C-842.47 673.42 -844.04 673.41 -845.61 673.4 C-857.47 673.31 -867.81 672.68 -878.44 667 C-879.13 666.64 -879.82 666.29 -880.54 665.92 C-883.47 664.41 -886.25 662.83 -889 661 C-889 660.34 -889 659.68 -889 659 C-889.85 658.66 -889.85 658.66 -890.71 658.31 C-893.62 656.64 -895.42 654.58 -897.62 652.06 C-898.4 651.19 -899.18 650.31 -899.98 649.41 C-904 644.62 -904 644.62 -904 641 C-904.66 641 -905.32 641 -906 641 C-909.2 633.73 -911.3 627.62 -911.26 619.55 C-911.26 618.71 -911.27 617.87 -911.27 617 C-911.28 614.18 -911.28 611.35 -911.27 608.53 C-911.28 606.49 -911.28 604.44 -911.29 602.4 C-911.3 596.78 -911.31 591.16 -911.31 585.55 C-911.31 579.49 -911.32 573.43 -911.33 567.37 C-911.35 554.82 -911.36 542.26 -911.37 529.7 C-911.37 529.02 -911.37 528.33 -911.37 527.63 C-911.37 526.95 -911.37 526.26 -911.37 525.56 C-911.37 517.98 -911.38 510.4 -911.38 502.82 C-911.4 479.92 -911.42 457.02 -911.42 434.12 C-911.42 433.39 -911.42 432.65 -911.42 431.9 C-911.42 428.93 -911.42 425.96 -911.42 422.99 C-911.42 420.76 -911.43 418.53 -911.43 416.29 C-911.43 415.55 -911.43 414.82 -911.43 414.06 C-911.43 390.87 -911.45 367.68 -911.49 344.49 C-911.53 318.43 -911.55 292.38 -911.55 266.33 C-911.55 263.55 -911.55 260.77 -911.55 257.99 C-911.55 257.3 -911.55 256.62 -911.55 255.91 C-911.55 244.91 -911.57 233.9 -911.59 222.9 C-911.62 211.83 -911.62 200.77 -911.61 189.7 C-911.6 183.71 -911.6 177.72 -911.62 171.73 C-911.64 166.24 -911.64 160.75 -911.62 155.26 C-911.62 153.28 -911.62 151.3 -911.64 149.31 C-911.71 138.51 -911.39 129.71 -906 120 C-905.44 118.92 -904.88 117.85 -904.3 116.74 C-895 102.16 -882.56 92.21 -865.54 88.38 C-858.1 86.85 -850.93 86.56 -843.35 86.6 C-842 86.6 -840.65 86.6 -839.3 86.59 C-836.5 86.59 -833.7 86.59 -830.89 86.61 C-827.32 86.63 -823.75 86.62 -820.18 86.6 C-817.41 86.59 -814.63 86.59 -811.85 86.6 C-809.9 86.6 -807.95 86.59 -806 86.58 C-797.02 86.65 -789.73 87.46 -783 94 C-780.73 97.28 -779.51 100.23 -778 104 C-766.78 104 -755.56 104 -744 104 C-741.52 99.05 -741.52 99.05 -739 94 C-734.22 88.96 -727.83 86.88 -721.02 86.63 C-719.11 86.61 -717.21 86.62 -715.3 86.63 C-714.24 86.63 -713.18 86.62 -712.09 86.62 C-708.54 86.61 -704.98 86.63 -701.42 86.64 C-698.85 86.64 -696.28 86.64 -693.71 86.63 C-688.11 86.63 -682.51 86.63 -676.92 86.64 C-668.6 86.66 -660.28 86.66 -651.96 86.66 C-637.96 86.65 -623.96 86.66 -609.96 86.68 C-596.1 86.7 -582.24 86.71 -568.38 86.72 C-567.09 86.72 -567.09 86.72 -565.77 86.72 C-561.4 86.72 -557.02 86.72 -552.64 86.72 C-521.65 86.73 -490.65 86.75 -459.65 86.77 C-429.54 86.8 -399.42 86.82 -369.31 86.84 C-368.38 86.84 -367.45 86.84 -366.49 86.84 C-357.17 86.84 -347.85 86.84 -338.53 86.85 C-319.54 86.86 -300.55 86.86 -281.56 86.87 C-280.69 86.87 -279.81 86.87 -278.91 86.87 C-220.61 86.9 -162.3 86.95 -104 87 C-104.02 86.01 -104.03 85.02 -104.05 83.99 C-104.1 80.25 -104.14 76.51 -104.16 72.76 C-104.18 71.15 -104.2 69.54 -104.23 67.93 C-104.57 46.06 -99.28 26.57 -83.88 10.31 C-61.04 -11.58 -27.57 -14.9 0 0 Z " fill="#000002" transform="translate(911,237)"/>
<path d="M0 0 C4.63 -0.1 9.25 -0.17 13.88 -0.22 C15.45 -0.24 17.03 -0.27 18.6 -0.3 C20.86 -0.35 23.13 -0.37 25.39 -0.39 C26.09 -0.41 26.79 -0.43 27.52 -0.45 C30.95 -0.45 32.69 -0.24 35.43 1.89 C37.1 4.13 37.63 5.66 38.19 8.38 C39.71 13.11 41.71 15.18 45.9 17.78 C52.85 20.52 60.64 19.82 68 19.76 C69.96 19.77 71.91 19.78 73.87 19.79 C79.23 19.81 84.59 19.8 89.95 19.78 C95.73 19.77 101.52 19.79 107.3 19.81 C117.32 19.83 127.34 19.83 137.36 19.82 C151.85 19.8 166.34 19.82 180.83 19.84 C204.33 19.88 227.83 19.89 251.34 19.88 C274.17 19.87 297 19.88 319.83 19.9 C320.89 19.9 320.89 19.9 321.97 19.9 C329.04 19.91 336.11 19.92 343.18 19.93 C357.58 19.94 371.98 19.96 386.38 19.97 C387.38 19.97 387.38 19.97 388.39 19.97 C432.59 20.01 476.8 20.01 521 20 C522.33 22.66 522.12 24.67 522.12 27.65 C522.13 28.86 522.13 30.07 522.13 31.32 C522.13 32.67 522.12 34.02 522.12 35.38 C522.12 36.8 522.12 38.23 522.12 39.65 C522.13 43.59 522.12 47.53 522.12 51.47 C522.11 55.77 522.11 60.08 522.11 64.38 C522.11 72.75 522.11 81.11 522.1 89.48 C522.1 99.15 522.1 108.82 522.09 118.49 C522.09 144.03 522.08 169.58 522.06 195.12 C522.04 252.17 522.02 309.22 522 368 C318.72 368 115.44 368 -94 368 C-95.29 365.41 -95.13 363.55 -95.13 360.66 C-95.14 359.52 -95.14 358.37 -95.15 357.2 C-95.15 355.93 -95.15 354.67 -95.15 353.37 C-95.15 352.02 -95.15 350.67 -95.16 349.32 C-95.17 345.61 -95.17 341.89 -95.17 338.17 C-95.18 334.16 -95.19 330.16 -95.2 326.15 C-95.22 316.48 -95.23 306.8 -95.24 297.12 C-95.24 292.56 -95.25 288 -95.25 283.44 C-95.27 268.3 -95.28 253.15 -95.29 238 C-95.29 234.07 -95.29 230.14 -95.3 226.21 C-95.3 224.74 -95.3 224.74 -95.3 223.24 C-95.3 207.41 -95.33 191.58 -95.36 175.75 C-95.4 159.51 -95.41 143.26 -95.42 127.01 C-95.42 117.88 -95.43 108.76 -95.45 99.63 C-95.48 91.86 -95.48 84.09 -95.47 76.32 C-95.47 72.35 -95.47 68.39 -95.49 64.43 C-95.51 60.79 -95.51 57.16 -95.49 53.53 C-95.49 51.6 -95.5 49.67 -95.52 47.74 C-95.46 39.55 -94.28 33.2 -89.18 26.66 C-88.56 26.13 -87.95 25.61 -87.31 25.06 C-86.71 24.52 -86.11 23.97 -85.49 23.41 C-77.79 19.05 -68.58 19.73 -60.02 19.76 C-58.69 19.76 -57.35 19.75 -56.01 19.74 C-50.37 19.7 -44.73 19.68 -39.1 19.69 C-35.63 19.7 -32.16 19.68 -28.7 19.65 C-26.75 19.64 -24.81 19.65 -22.86 19.67 C-15.55 19.59 -11.39 19.1 -6 14 C-3.66 10.99 -2.6 7.91 -1.42 4.33 C-1.15 3.52 -0.89 2.71 -0.61 1.87 C-0.31 0.95 -0.31 0.95 0 0 Z " fill="#F1EFEF" transform="translate(132,342)"/>
<path d="M0 0 C0.77 0 1.53 0 2.32 0 C3.21 -0 4.09 -0.01 5 -0.01 C5.98 -0.01 6.96 -0 7.97 0 C9.01 0 10.05 -0 11.12 -0 C14.64 -0.01 18.16 -0 21.69 0.01 C24.22 0.01 26.75 0.01 29.29 0 C34.82 0 40.35 0 45.88 0.01 C54.11 0.02 62.33 0.02 70.56 0.02 C84.39 0.02 98.22 0.03 112.06 0.04 C125.76 0.05 139.46 0.06 153.16 0.06 C154.44 0.06 154.44 0.06 155.74 0.06 C160.07 0.06 164.39 0.06 168.71 0.06 C199.35 0.07 229.98 0.08 260.62 0.1 C290.38 0.12 320.15 0.13 349.92 0.14 C351.29 0.14 351.29 0.14 352.7 0.14 C361.9 0.14 371.11 0.15 380.32 0.15 C399.09 0.15 417.85 0.16 436.61 0.16 C437.9 0.17 437.9 0.17 439.22 0.17 C496.86 0.18 554.5 0.22 612.14 0.25 C613.37 2.72 613.26 4.35 613.26 7.12 C613.26 8.15 613.26 9.18 613.26 10.24 C613.26 11.37 613.25 12.51 613.25 13.68 C613.25 14.87 613.25 16.06 613.25 17.28 C613.25 20.55 613.24 23.82 613.24 27.09 C613.23 30.5 613.23 33.92 613.23 37.33 C613.23 43.8 613.22 50.26 613.21 56.73 C613.2 64.09 613.19 71.45 613.19 78.81 C613.18 93.96 613.16 109.1 613.14 124.25 C579.95 124.36 546.77 124.45 513.59 124.5 C509.67 124.51 505.76 124.52 501.84 124.52 C500.67 124.53 500.67 124.53 499.48 124.53 C486.85 124.55 474.22 124.59 461.59 124.64 C448.64 124.68 435.68 124.71 422.73 124.72 C414.73 124.73 406.74 124.75 398.74 124.79 C392.61 124.82 386.49 124.82 380.36 124.81 C377.84 124.82 375.32 124.83 372.81 124.85 C369.38 124.87 365.95 124.86 362.53 124.85 C361.52 124.87 360.52 124.88 359.48 124.89 C352.76 124.82 352.76 124.82 349.56 121.88 C348.11 119.2 346.9 116.6 345.82 113.75 C332.83 81.67 307.92 55.17 276.14 41.25 C238.56 26.37 201.01 26.86 163.74 42.24 C153.67 46.65 144.77 52.5 136.14 59.25 C135.58 59.68 135.03 60.1 134.46 60.54 C115.34 75.45 102.1 94.87 93.14 117.25 C92.15 119.59 91.14 121.92 90.14 124.25 C80.76 124.3 71.38 124.33 62 124.35 C57.64 124.36 53.28 124.38 48.93 124.4 C44.72 124.42 40.51 124.43 36.3 124.44 C34.7 124.44 33.1 124.45 31.5 124.46 C29.25 124.48 27 124.48 24.74 124.48 C22.83 124.48 22.83 124.48 20.87 124.49 C14.96 124.11 9.52 123.13 4.82 119.31 C4.19 118.81 3.55 118.3 2.9 117.78 C2.32 117.28 1.73 116.77 1.14 116.25 C0.61 115.81 0.08 115.38 -0.47 114.93 C-3.94 110.74 -4.12 105.62 -4.13 100.39 C-4.13 99.11 -4.14 97.83 -4.14 96.51 C-4.13 95.85 -4.13 95.19 -4.13 94.52 C-4.11 92.49 -4.13 90.47 -4.14 88.44 C-4.14 87.17 -4.13 85.89 -4.13 84.58 C-4.13 83.41 -4.13 82.24 -4.12 81.04 C-3.86 78.25 -3.86 78.25 -1.86 76.25 C0.12 75.98 0.12 75.98 2.53 75.94 C3.4 75.92 4.28 75.89 5.18 75.86 C7.01 75.83 8.85 75.8 10.68 75.77 C16.59 75.59 20.3 75 24.68 70.75 C28.67 65.78 29.55 62.19 29.48 55.96 C28.76 50.3 26.04 45.73 21.57 42.25 C17.97 40.77 14.72 40.13 10.84 39.97 C10.05 39.93 9.25 39.89 8.43 39.85 C6.76 39.78 5.1 39.71 3.43 39.64 C-2.76 39.35 -2.76 39.35 -3.86 38.25 C-3.98 35.61 -4.03 32.99 -4.03 30.35 C-4.04 29.55 -4.04 28.76 -4.04 27.94 C-4.05 26.26 -4.05 24.58 -4.05 22.9 C-4.05 20.33 -4.07 17.75 -4.09 15.17 C-4.09 13.54 -4.09 11.91 -4.1 10.28 C-4.1 9.51 -4.11 8.74 -4.12 7.94 C-4.09 0.55 -4.09 0.55 0 0 Z " fill="#D74751" transform="translate(40.86458034068346,746.7506576701999)"/>
<path d="M0 0 C0.83 -0 1.65 -0.01 2.5 -0.01 C5.24 -0.02 7.98 -0.02 10.72 -0.02 C12.62 -0.03 14.52 -0.03 16.41 -0.03 C20.4 -0.04 24.38 -0.04 28.36 -0.04 C33.47 -0.04 38.58 -0.05 43.69 -0.07 C47.61 -0.08 51.53 -0.08 55.45 -0.08 C57.34 -0.08 59.22 -0.09 61.11 -0.1 C63.74 -0.11 66.37 -0.1 69 -0.1 C70.18 -0.11 70.18 -0.11 71.38 -0.11 C76.77 -0.08 76.77 -0.08 79 2.15 C79.2 5.19 79.28 8.14 79.27 11.19 C79.27 12.61 79.27 12.61 79.28 14.06 C79.29 17.26 79.29 20.46 79.29 23.66 C79.3 25.95 79.3 28.23 79.31 30.52 C79.32 35.46 79.33 40.39 79.34 45.33 C79.34 53.13 79.37 60.94 79.39 68.75 C79.42 79.7 79.45 90.66 79.47 101.61 C79.47 102.31 79.47 103 79.47 103.72 C79.48 108.65 79.49 113.59 79.5 118.52 C79.51 124.14 79.52 129.76 79.53 135.37 C79.54 136.07 79.54 136.76 79.54 137.47 C79.56 149.03 79.59 160.59 79.63 172.14 C79.65 179.9 79.66 187.66 79.67 195.41 C79.68 200.25 79.69 205.09 79.71 209.93 C79.71 212.16 79.71 214.4 79.71 216.64 C79.71 236.85 80.18 255.69 95 271.15 C104.87 279.36 118.01 286.29 131.02 286.26 C132.01 286.26 133.01 286.26 134.03 286.26 C135.11 286.25 136.2 286.25 137.31 286.24 C138.47 286.24 139.62 286.24 140.81 286.24 C144.02 286.23 147.23 286.22 150.43 286.21 C153.89 286.2 157.35 286.2 160.81 286.19 C165.25 286.19 169.7 286.18 174.15 286.17 C185.17 286.15 196.2 286.14 207.23 286.14 C208.03 286.14 208.83 286.14 209.65 286.14 C216.22 286.15 222.79 286.15 229.36 286.15 C235.28 286.15 241.2 286.15 247.11 286.15 C247.96 286.15 248.8 286.15 249.67 286.15 C263.33 286.15 276.99 286.13 290.66 286.09 C304.69 286.05 318.73 286.04 332.76 286.07 C341.42 286.09 350.07 286.07 358.72 286.03 C364.66 286 370.59 286 376.52 286.03 C379.94 286.05 383.36 286.05 386.78 286.01 C409.88 285.8 409.88 285.8 416.97 291.55 C418.35 293.05 419.7 294.58 421 296.15 C422.91 297.63 422.91 297.63 424.7 298.72 C425.25 299.07 425.81 299.42 426.38 299.78 C426.96 300.13 427.53 300.47 428.13 300.83 C428.78 301.24 429.44 301.64 430.11 302.05 C437.37 306.46 444.8 310.56 452.22 314.68 C460.69 319.39 469.07 324.24 477.42 329.15 C482.07 331.88 486.73 334.57 491.47 337.14 C492.31 337.6 493.16 338.06 494.02 338.53 C495.59 339.37 497.16 340.21 498.74 341.04 C503.89 343.82 503.89 343.82 505 347.15 C505.66 347.48 506.32 347.81 507 348.15 C457.93 348.18 408.86 348.21 359.79 348.23 C359.07 348.23 358.34 348.23 357.59 348.23 C341.82 348.24 326.05 348.24 310.28 348.25 C302.55 348.25 294.81 348.25 287.08 348.26 C286.31 348.26 285.54 348.26 284.75 348.26 C259.78 348.26 234.82 348.28 209.85 348.3 C184.21 348.32 158.57 348.33 132.92 348.33 C129.3 348.33 125.68 348.33 122.07 348.34 C121 348.34 121 348.34 119.91 348.34 C108.42 348.34 96.94 348.35 85.45 348.36 C73.92 348.37 62.39 348.38 50.85 348.37 C44.6 348.37 38.34 348.37 32.09 348.38 C26.37 348.39 20.66 348.39 14.94 348.39 C12.86 348.39 10.79 348.39 8.71 348.4 C5.9 348.4 3.1 348.4 0.29 348.39 C-0.94 348.4 -0.94 348.4 -2.2 348.41 C-7.77 348.37 -7.77 348.37 -10 346.15 C-10.25 343.68 -10.25 343.68 -10.24 340.51 C-10.25 339.31 -10.25 338.1 -10.26 336.86 C-10.25 335.51 -10.24 334.16 -10.24 332.81 C-10.24 331.38 -10.24 329.96 -10.24 328.53 C-10.25 324.6 -10.24 320.67 -10.23 316.75 C-10.22 312.51 -10.22 308.28 -10.23 304.05 C-10.23 296.71 -10.22 289.38 -10.21 282.04 C-10.19 271.43 -10.19 260.83 -10.19 250.22 C-10.18 233.01 -10.17 215.8 -10.15 198.59 C-10.13 181.87 -10.12 165.16 -10.11 148.44 C-10.11 147.41 -10.11 146.38 -10.11 145.31 C-10.1 140.15 -10.1 134.98 -10.1 129.81 C-10.08 86.92 -10.04 44.03 -10 1.15 C-6.84 -0.43 -3.46 -0 0 0 Z " fill="#F1EFF0" transform="translate(701.998046875,361.854736328125)"/>
<path d="M0 0 C0.87 0 1.74 0.01 2.64 0.02 C3.56 0.01 4.49 0.01 5.44 0.01 C8.57 0 11.7 0.01 14.83 0.02 C17.08 0.02 19.34 0.01 21.59 0.01 C27.81 0 34.03 0.01 40.25 0.02 C46.25 0.02 52.26 0.02 58.27 0.02 C70.57 0.01 82.87 0.01 95.17 0.02 C107.35 0.03 119.53 0.04 131.71 0.04 C132.47 0.04 133.22 0.04 134 0.04 C137.07 0.04 140.14 0.04 143.22 0.04 C172.05 0.03 200.88 0.04 229.71 0.06 C255.35 0.07 280.99 0.08 306.63 0.08 C308.27 0.08 309.92 0.08 311.56 0.08 C312.38 0.08 313.19 0.08 314.03 0.08 C318.13 0.08 322.22 0.08 326.32 0.08 C327.13 0.08 327.94 0.08 328.77 0.08 C350.17 0.08 371.56 0.08 392.96 0.09 C393.72 0.09 394.48 0.09 395.27 0.09 C398.33 0.09 401.39 0.09 404.45 0.09 C415.11 0.1 425.77 0.1 436.43 0.1 C450.17 0.1 463.91 0.1 477.64 0.11 C484.27 0.12 490.9 0.12 497.53 0.12 C503.59 0.12 509.64 0.12 515.7 0.13 C517.9 0.13 520.1 0.13 522.31 0.13 C525.28 0.13 528.25 0.13 531.22 0.14 C532.53 0.13 532.53 0.13 533.87 0.13 C539.75 0.15 539.75 0.15 540.87 1.26 C541.12 3.69 541.3 6.08 541.43 8.51 C541.47 9.25 541.51 9.99 541.56 10.76 C542.05 20.25 541.95 29.76 541.87 39.26 C540.28 39.29 540.28 39.29 538.66 39.32 C534.71 39.4 530.76 39.49 526.82 39.58 C525.11 39.62 523.41 39.65 521.7 39.69 C519.24 39.73 516.79 39.79 514.33 39.85 C513.19 39.87 513.19 39.87 512.04 39.88 C504.34 40.1 499.36 41.78 493.87 47.26 C490.21 53.72 489.99 58.89 491.8 65.89 C494.73 70.67 497.64 73.14 502.87 75.26 C509.12 76.35 515.55 76.11 521.87 76.08 C524.44 76.09 527 76.11 529.57 76.14 C531.16 76.15 532.75 76.16 534.34 76.15 C539.76 76.16 539.76 76.16 540.87 77.26 C544.27 103.8 544.27 103.8 537.94 113.1 C532.23 119.81 527.43 123.19 518.52 124.08 C513.52 124.43 508.52 124.41 503.51 124.41 C501.7 124.41 501.7 124.41 499.86 124.42 C496.58 124.43 493.29 124.43 490.01 124.43 C487.96 124.43 485.91 124.43 483.86 124.44 C476.7 124.45 469.54 124.45 462.37 124.45 C455.7 124.45 449.03 124.46 442.36 124.47 C436.62 124.49 430.88 124.49 425.14 124.49 C421.72 124.49 418.3 124.5 414.87 124.51 C411.07 124.52 407.26 124.51 403.45 124.51 C402.31 124.51 401.18 124.52 400.01 124.52 C398.98 124.52 397.94 124.52 396.88 124.51 C395.98 124.51 395.08 124.51 394.15 124.51 C391.87 124.26 391.87 124.26 388.87 122.26 C387.95 120.55 387.95 120.55 387.18 118.47 C386.73 117.32 386.73 117.32 386.27 116.15 C385.95 115.32 385.63 114.49 385.3 113.64 C372.36 81.68 347.13 55.28 315.59 41.32 C280.08 26.39 241.46 26.58 205.87 40.95 C181.03 52.12 161.19 68.82 145.87 91.26 C145.13 92.32 144.4 93.39 143.64 94.48 C139.08 101.46 135.96 108.52 133.12 116.35 C131.04 122.09 131.04 122.09 128.87 124.26 C126.52 124.52 126.52 124.52 123.52 124.52 C122.38 124.52 121.24 124.53 120.07 124.54 C118.82 124.53 117.57 124.53 116.28 124.52 C114.97 124.53 113.65 124.53 112.3 124.53 C108.69 124.54 105.08 124.54 101.47 124.53 C97.7 124.53 93.93 124.53 90.15 124.54 C83.82 124.54 77.48 124.53 71.15 124.52 C63.82 124.51 56.49 124.52 49.15 124.53 C42.87 124.54 36.58 124.54 30.29 124.53 C26.54 124.53 22.78 124.53 19.02 124.54 C14.83 124.54 10.64 124.53 6.46 124.52 C5.2 124.53 3.95 124.53 2.66 124.54 C1.53 124.53 0.39 124.52 -0.78 124.52 C-1.77 124.52 -2.76 124.52 -3.78 124.52 C-6.13 124.26 -6.13 124.26 -8.13 122.26 C-8.38 120.15 -8.38 120.15 -8.39 117.48 C-8.39 116.47 -8.4 115.46 -8.4 114.42 C-8.4 113.31 -8.4 112.2 -8.39 111.05 C-8.4 109.89 -8.4 108.72 -8.4 107.52 C-8.41 104.31 -8.41 101.1 -8.4 97.9 C-8.4 94.54 -8.4 91.19 -8.4 87.84 C-8.41 82.21 -8.4 76.58 -8.39 70.95 C-8.38 64.44 -8.39 57.93 -8.4 51.41 C-8.41 45.83 -8.41 40.24 -8.4 34.65 C-8.4 31.32 -8.4 27.98 -8.41 24.64 C-8.41 20.92 -8.4 17.2 -8.39 13.47 C-8.4 12.36 -8.4 11.25 -8.4 10.11 C-8.4 9.1 -8.39 8.09 -8.39 7.05 C-8.39 6.17 -8.39 5.29 -8.38 4.38 C-7.79 -0.62 -4.17 0.03 0 0 Z " fill="#D74751" transform="translate(700.132711738348,746.7360559403896)"/>
<path d="M0 0 C1.61 -0.01 1.61 -0.01 3.25 -0.02 C5.52 -0.03 7.79 -0.03 10.05 -0.04 C13.49 -0.05 16.93 -0.08 20.36 -0.11 C22.58 -0.12 24.79 -0.12 27 -0.12 C28.01 -0.14 29.03 -0.15 30.07 -0.16 C41.84 -0.13 52.55 2.22 61.46 10.2 C68.26 17.26 71.95 26.6 72.18 36.24 C72.2 36.92 72.22 37.61 72.24 38.31 C72.31 41.22 72.38 44.13 72.45 47.05 C72.5 49.18 72.56 51.3 72.62 53.43 C72.65 54.7 72.68 55.98 72.71 57.29 C72.57 60.09 72.57 60.09 73.9 61.2 C76 61.33 78.1 61.38 80.21 61.41 C81.51 61.44 82.82 61.47 84.16 61.5 C86.24 61.54 88.31 61.58 90.38 61.6 C102.13 61.77 112.7 62.4 121.61 70.82 C128.85 78.44 133.97 88.03 134.08 98.62 C134.09 100.25 134.09 100.25 134.11 101.91 C134.12 103.08 134.13 104.25 134.14 105.46 C134.14 106.67 134.15 107.88 134.16 109.13 C134.18 111.69 134.19 114.26 134.19 116.83 C134.21 120.73 134.25 124.63 134.3 128.53 C134.31 131.02 134.32 133.52 134.32 136.02 C134.34 137.18 134.36 138.33 134.38 139.52 C134.35 150.48 131.6 160.15 123.9 168.2 C115.31 175.99 107.43 179.17 95.85 179.52 C95.19 179.54 94.53 179.56 93.85 179.58 C91.76 179.65 89.67 179.71 87.59 179.77 C86.16 179.81 84.74 179.85 83.32 179.9 C79.85 180 76.37 180.1 72.9 180.2 C72.88 181.13 72.87 182.06 72.85 183.01 C72.79 186.49 72.72 189.96 72.64 193.44 C72.6 194.93 72.57 196.43 72.55 197.93 C72.34 211.19 70.34 221.07 61.08 231.19 C53.81 238.07 44.78 241.29 34.82 241.36 C33.35 241.38 33.35 241.38 31.84 241.39 C30.78 241.4 29.73 241.4 28.64 241.41 C27.54 241.41 26.44 241.42 25.31 241.42 C22.99 241.43 20.66 241.44 18.34 241.44 C14.81 241.45 11.28 241.48 7.75 241.52 C5.48 241.52 3.22 241.53 0.95 241.53 C-0.61 241.55 -0.61 241.55 -2.21 241.57 C-14.82 241.53 -25.49 238.1 -34.98 229.64 C-35.68 228.84 -36.38 228.03 -37.1 227.2 C-38.15 226.09 -38.15 226.09 -39.23 224.95 C-43.91 218.08 -45.24 209.77 -45.2 201.59 C-45.2 200.34 -45.19 199.1 -45.19 197.81 C-45.18 195.87 -45.18 195.87 -45.16 193.89 C-45.16 192.58 -45.16 191.26 -45.15 189.91 C-45.14 186.68 -45.12 183.44 -45.1 180.2 C-45.92 180.19 -46.74 180.17 -47.59 180.16 C-50.69 180.1 -53.79 180.02 -56.89 179.94 C-58.87 179.89 -60.85 179.86 -62.83 179.82 C-78.19 179.39 -88.71 176.05 -99.54 164.89 C-106.73 157.25 -106.56 146.55 -106.54 136.67 C-106.54 135.4 -106.55 134.13 -106.55 132.82 C-106.56 130.14 -106.56 127.47 -106.55 124.79 C-106.54 121.39 -106.56 117.99 -106.59 114.58 C-106.61 111.3 -106.6 108.02 -106.6 104.73 C-106.61 103.53 -106.62 102.32 -106.63 101.08 C-106.54 89.29 -102.95 80.42 -95.04 71.64 C-87.61 64.41 -78.12 62.06 -68.05 62.11 C-67.39 62.11 -66.73 62.11 -66.05 62.11 C-63.97 62.12 -61.88 62.13 -59.79 62.14 C-58.37 62.15 -56.94 62.15 -55.52 62.15 C-52.05 62.17 -48.57 62.18 -45.1 62.2 C-45.12 61.42 -45.13 60.63 -45.15 59.82 C-45.21 56.2 -45.25 52.58 -45.29 48.95 C-45.31 47.72 -45.34 46.48 -45.37 45.21 C-45.46 33.06 -43.91 22.8 -36.1 13.2 C-35.35 12.25 -35.35 12.25 -34.58 11.27 C-25.64 1.14 -12.66 0.05 0 0 Z " fill="#000002" transform="translate(430.1015625,410.796875)"/>
<path d="M0 0 C1.17 -0 2.34 -0.01 3.55 -0.01 C4.84 -0.01 6.13 -0.01 7.46 -0.01 C8.83 -0.01 10.19 -0.02 11.56 -0.02 C15.29 -0.03 19.01 -0.03 22.74 -0.03 C25.07 -0.03 27.4 -0.04 29.74 -0.04 C37.88 -0.05 46.03 -0.05 54.17 -0.05 C61.74 -0.05 69.31 -0.06 76.88 -0.08 C83.4 -0.09 89.91 -0.1 96.42 -0.1 C100.3 -0.09 104.18 -0.1 108.07 -0.11 C111.73 -0.12 115.39 -0.12 119.06 -0.11 C121.02 -0.11 122.99 -0.12 124.95 -0.13 C140.77 -0.07 155.48 1.39 167.21 12.78 C167.97 13.56 168.72 14.33 169.49 15.13 C170.47 16.13 170.47 16.13 171.46 17.15 C178.73 25 183.14 33.9 186.49 43.97 C186.84 45 187.19 46.02 187.55 47.07 C188.69 50.4 189.81 53.74 190.93 57.07 C191.73 59.42 192.53 61.76 193.33 64.11 C194.95 68.86 196.57 73.61 198.19 78.37 C201.13 87.01 204.14 95.63 207.15 104.24 C208.68 108.59 210.2 112.95 211.72 117.3 C212.17 118.61 212.17 118.61 212.64 119.95 C216.08 129.8 219.49 139.65 222.91 149.51 C228.74 166.33 234.58 183.14 240.43 199.95 C240.74 200.83 241.05 201.72 241.37 202.63 C244.43 211.42 247.51 220.2 250.65 228.96 C251.01 229.97 251.01 229.97 251.38 231 C252.48 234.07 253.59 237.13 254.7 240.19 C255.08 241.23 255.45 242.26 255.83 243.33 C256.32 244.66 256.32 244.66 256.81 246.02 C257.49 248.13 257.49 248.13 257.49 250.13 C247.3 251.04 247.3 251.04 243.38 249.08 C241.07 247.11 239.12 244.88 237.17 242.56 C230.86 235.09 223.8 228.33 216.87 221.45 C215.55 220.13 214.22 218.81 212.9 217.49 C210.47 215.07 208.04 212.65 205.61 210.24 C202.9 207.54 200.2 204.84 197.49 202.13 C198.71 199.6 200.02 197.32 201.56 194.95 C203.89 190.79 204.98 186.92 204.49 182.13 C203.44 179.36 202.18 176.87 200.72 174.3 C199.49 172.13 199.49 172.13 198.49 169.13 C191.62 166.88 185.09 165.81 178.3 169.03 C169.67 174.31 162.41 182.87 155.24 189.93 C153.87 191.28 152.49 192.61 151.1 193.95 C149.07 195.89 147.07 197.86 145.07 199.84 C144.14 200.71 144.14 200.71 143.2 201.61 C137.93 206.9 135.68 212.85 135.36 220.31 C136.23 225.3 137.13 228.46 141.18 231.7 C145.94 234.67 150.22 236.13 155.87 236.13 C160.13 234.96 162.91 232.99 166.38 230.31 C168.49 229.13 168.49 229.13 170.39 229.34 C173 230.32 174.35 231.62 176.31 233.59 C177.36 234.64 177.36 234.64 178.44 235.71 C179.16 236.45 179.88 237.19 180.62 237.95 C181.35 238.67 182.08 239.4 182.83 240.14 C186.1 243.45 188.38 245.91 190.49 250.13 C160.79 250.13 131.09 250.13 100.49 250.13 C100.49 249.47 100.49 248.81 100.49 248.13 C99.83 248.13 99.17 248.13 98.49 248.13 C98.34 247.21 98.18 246.3 98.02 245.35 C93.68 220.04 89.31 194.75 84.9 169.46 C84.52 167.31 84.15 165.16 83.78 163.01 C82.67 156.66 81.55 150.31 80.4 143.97 C80.09 142.27 79.79 140.57 79.49 138.87 C77.27 126.21 74.01 114.32 67.12 103.32 C66.53 102.37 66.53 102.37 65.94 101.41 C56.11 85.82 41.23 75.84 23.32 71.65 C16.4 70.39 9.34 70.11 2.32 69.77 C1.19 69.71 0.06 69.65 -1.1 69.59 C-2.63 69.53 -2.63 69.53 -4.18 69.47 C-4.95 69.36 -5.72 69.25 -6.51 69.13 C-7.91 66.32 -7.63 63.99 -7.62 60.85 C-7.62 60.2 -7.62 59.56 -7.62 58.9 C-7.62 56.76 -7.61 54.63 -7.6 52.5 C-7.6 51.02 -7.6 49.55 -7.6 48.07 C-7.6 44.18 -7.59 40.29 -7.57 36.4 C-7.56 32.43 -7.56 28.47 -7.55 24.5 C-7.54 16.71 -7.53 8.92 -7.51 1.13 C-4.88 -0.18 -2.94 0 0 0 Z " fill="#AEE4F4" transform="translate(826.5059356689453,361.8662872314453)"/>
<path d="M0 0 C0.85 0.78 1.7 1.56 2.58 2.36 C3.42 3.11 4.27 3.86 5.13 4.63 C20.59 19.13 30.43 38.78 34.58 59.36 C34.76 60.13 34.93 60.91 35.11 61.7 C38.43 80.44 35.37 99.31 28.83 116.86 C26.33 123.6 25.23 128.73 27.77 135.55 C29.2 137.77 30.6 139.58 32.33 141.55 C33.07 142.48 33.82 143.41 34.58 144.36 C32.31 151.19 28.47 156.16 22.58 160.36 C22.25 161.02 21.92 161.68 21.58 162.36 C19.01 166.22 16.97 166.31 12.58 167.36 C12.58 168.35 12.58 169.34 12.58 170.36 C11.92 170.69 11.26 171.02 10.58 171.36 C9.7 170.77 8.81 170.17 7.89 169.55 C6.8 168.83 5.71 168.11 4.58 167.36 C3.82 166.81 3.06 166.25 2.27 165.68 C-2.17 163.51 -6.87 162.68 -11.71 163.97 C-14.06 164.91 -16.33 165.95 -18.61 167.05 C-20.27 167.8 -21.93 168.55 -23.6 169.29 C-24.41 169.65 -25.23 170.01 -26.07 170.38 C-49.57 180.23 -77.67 178.61 -101.14 169.74 C-125.32 159.6 -145.46 140.27 -155.67 116.11 C-156.65 113.55 -157.55 110.97 -158.42 108.36 C-158.74 107.42 -158.74 107.42 -159.06 106.46 C-167.11 81.46 -163.03 54.37 -151.41 31.32 C-144.2 17.56 -134.98 6.58 -122.42 -2.64 C-121.48 -3.34 -120.55 -4.03 -119.59 -4.75 C-111.96 -10.17 -104.17 -13.55 -95.42 -16.64 C-93.81 -17.22 -93.81 -17.22 -92.17 -17.82 C-61.66 -28.19 -24.37 -21.23 0 0 Z " fill="#4F4C54" transform="translate(324.41796875,835.63671875)"/>
<path d="M0 0 C19.63 18.74 31.36 43.49 32.35 70.56 C32.82 99.15 24.41 123.45 4.46 144.25 C-13.61 162.57 -37.16 173.07 -62.96 173.38 C-89.56 173.45 -113.76 166.35 -133.78 148.14 C-134.75 147.25 -135.73 146.37 -136.73 145.46 C-154.53 128.81 -165.88 104.49 -167.02 80.03 C-167.69 51.9 -157.69 25.23 -138.33 4.72 C-121.96 -11.98 -101.62 -21.23 -78.78 -24.86 C-77.98 -25.01 -77.19 -25.15 -76.37 -25.3 C-49.56 -29.36 -19.64 -18.01 0 0 Z " fill="#4F4C54" transform="translate(1026.77734375,838.86328125)"/>
<path d="M0 0 C1.15 -0 1.15 -0 2.32 -0.01 C3.93 -0.02 5.54 -0.02 7.15 -0.02 C9.62 -0.02 12.08 -0.04 14.55 -0.06 C16.12 -0.06 17.68 -0.06 19.25 -0.06 C19.99 -0.07 20.73 -0.08 21.49 -0.08 C26.7 -0.06 26.7 -0.06 28.93 2.17 C29.18 4.02 29.18 4.02 29.2 6.29 C29.21 7.57 29.21 7.57 29.23 8.87 C29.23 9.8 29.23 10.72 29.23 11.67 C29.26 13.63 29.28 15.59 29.31 17.54 C29.34 20.63 29.36 23.71 29.38 26.8 C29.4 29.78 29.44 32.76 29.48 35.73 C29.48 37.1 29.48 37.1 29.48 38.49 C29.57 44.24 30.01 50.08 32.93 55.17 C34.8 56.34 34.8 56.34 36.93 57.17 C37.51 57.51 38.1 57.86 38.7 58.22 C44.25 61.38 48.99 61.76 55.3 61.74 C56.26 61.76 57.22 61.77 58.21 61.79 C61.26 61.83 64.31 61.84 67.36 61.86 C70.44 61.88 73.51 61.92 76.59 61.96 C78.49 61.98 80.4 62 82.31 62 C83.16 62.01 84.02 62.02 84.9 62.03 C86.03 62.03 86.03 62.03 87.19 62.04 C88.93 62.17 88.93 62.17 89.93 63.17 C90.01 66.2 90.04 69.2 90.02 72.23 C90.02 73.6 90.02 73.6 90.02 74.99 C90.01 77.9 90 80.82 89.99 83.73 C89.98 85.7 89.98 87.67 89.97 89.64 C89.96 94.48 89.95 99.33 89.93 104.17 C88.71 104.18 87.49 104.19 86.23 104.2 C81.66 104.24 77.1 104.3 72.53 104.38 C70.56 104.4 68.59 104.42 66.62 104.44 C63.78 104.46 60.93 104.51 58.09 104.56 C56.79 104.56 56.79 104.56 55.46 104.56 C47.81 104.74 41.06 106.7 34.99 111.48 C29.99 117.99 29.47 123.73 29.41 131.7 C29.39 133.18 29.39 133.18 29.36 134.69 C29.31 137.83 29.27 140.97 29.24 144.11 C29.21 146.24 29.17 148.38 29.13 150.51 C29.05 155.73 28.98 160.95 28.93 166.17 C23.12 166.22 17.32 166.25 11.52 166.28 C9.54 166.29 7.57 166.3 5.59 166.32 C2.76 166.34 -0.08 166.35 -2.91 166.36 C-3.8 166.37 -4.68 166.38 -5.6 166.39 C-7.76 166.39 -9.92 166.29 -12.07 166.17 C-14.07 164.17 -14.07 164.17 -14.31 162.28 C-14.31 161.51 -14.3 160.74 -14.3 159.95 C-14.3 158.65 -14.3 158.65 -14.3 157.31 C-14.29 156.37 -14.28 155.42 -14.28 154.45 C-14.29 152.44 -14.3 150.44 -14.31 148.44 C-14.32 145.28 -14.32 142.12 -14.3 138.96 C-14.29 135.91 -14.31 132.87 -14.34 129.82 C-14.32 128.89 -14.31 127.96 -14.29 127 C-14.4 120.01 -16.42 115.4 -21.07 110.17 C-27.25 105 -34.21 104.86 -41.91 104.79 C-42.83 104.77 -43.75 104.76 -44.7 104.74 C-47.61 104.68 -50.53 104.64 -53.45 104.61 C-56.39 104.56 -59.33 104.51 -62.26 104.46 C-64.09 104.43 -65.91 104.4 -67.74 104.38 C-73.96 104.28 -73.96 104.28 -75.07 103.17 C-75.16 100.21 -75.19 97.28 -75.17 94.32 C-75.17 93.43 -75.17 92.55 -75.17 91.63 C-75.16 88.79 -75.15 85.95 -75.14 83.11 C-75.13 81.18 -75.13 79.26 -75.12 77.34 C-75.11 72.61 -75.09 67.89 -75.07 63.17 C-72.76 62.01 -71.39 62.03 -68.81 62.01 C-67.49 61.99 -67.49 61.99 -66.14 61.98 C-65.19 61.97 -64.23 61.96 -63.25 61.96 C-61.23 61.93 -59.21 61.9 -57.2 61.87 C-54.01 61.83 -50.83 61.79 -47.64 61.77 C-44.57 61.74 -41.5 61.69 -38.43 61.64 C-37.49 61.64 -36.54 61.64 -35.56 61.63 C-29.44 61.52 -24.89 60.77 -20.21 56.45 C-19.49 55.57 -19.49 55.57 -18.76 54.67 C-18.27 54.08 -17.78 53.49 -17.27 52.89 C-15.2 49.91 -14.94 47.25 -14.88 43.73 C-14.86 42.39 -14.86 42.39 -14.83 41.02 C-14.82 40.06 -14.81 39.09 -14.79 38.1 C-14.77 37.11 -14.76 36.12 -14.74 35.1 C-14.66 30.86 -14.59 26.62 -14.52 22.38 C-14.47 19.29 -14.41 16.19 -14.36 13.1 C-14.34 12.14 -14.33 11.17 -14.31 10.18 C-14.29 8.84 -14.29 8.84 -14.26 7.48 C-14.24 6.3 -14.24 6.3 -14.23 5.1 C-14.07 3.17 -14.07 3.17 -13.07 1.17 C-8.8 -0.11 -4.42 0.01 0 0 Z " fill="#D74751" transform="translate(436.07421875,447.83203125)"/>
<path d="M0 0 C0.85 0.34 1.7 0.68 2.58 1.02 C18.41 8.05 27.81 22.43 34 38 C38.2 49.75 37.82 66.38 33.45 78.02 C25.17 95.01 13.13 107.48 -4.81 114.27 C-16.49 118.15 -33.98 118.17 -45.31 113.39 C-46.2 112.93 -47.08 112.47 -48 112 C-49.17 111.41 -50.33 110.81 -51.54 110.2 C-58.33 106.59 -64.66 102.6 -70 97 C-70.6 96.37 -71.2 95.74 -71.82 95.09 C-82.48 82.72 -86.05 65.9 -85 50 C-83.01 33.74 -74.79 19.33 -62.41 8.79 C-44.18 -5.32 -21.34 -8.75 0 0 Z " fill="#000002" transform="translate(984,857)"/>
<path d="M0 0 C13.05 12.24 20.34 27.68 21.64 45.41 C21.7 47.92 21.62 50.35 21.45 52.85 C21.36 54.2 21.36 54.2 21.28 55.58 C19.62 70.19 10.78 85.25 -0.61 94.45 C-16.87 106.2 -32.89 109.02 -52.73 106.58 C-67.52 103.8 -82.27 92.57 -90.93 80.54 C-99.18 67.01 -102.42 51.43 -99.55 35.85 C-97.15 26.56 -93.08 17.69 -87.55 9.85 C-87.13 9.24 -86.7 8.63 -86.26 8.01 C-76.28 -4.83 -60.38 -11.91 -44.53 -13.96 C-28.36 -14.98 -12.48 -10.51 0 0 Z " fill="#000002" transform="translate(300.55078125,866.1484375)"/>
<path d="M0 0 C2.09 -0 4.19 -0 6.28 -0.01 C11.94 -0.01 17.6 0 23.25 0.02 C29.19 0.03 35.12 0.03 41.06 0.03 C51.02 0.04 60.98 0.05 70.94 0.08 C83.71 0.1 96.48 0.11 109.25 0.12 C120.25 0.12 131.25 0.14 142.25 0.15 C145.78 0.15 149.3 0.16 152.83 0.16 C158.38 0.16 163.92 0.17 169.47 0.19 C171.5 0.19 173.53 0.2 175.56 0.2 C178.34 0.2 181.12 0.21 183.91 0.22 C184.7 0.22 185.5 0.21 186.32 0.21 C203.58 0.3 203.58 0.3 209.15 4.36 C213.78 9.11 215.56 13.41 215.78 20.04 C215.52 25.23 214.83 28.48 211.15 32.36 C207.16 35.95 203.61 38.6 198.13 38.62 C196.93 38.63 196.93 38.63 195.71 38.64 C194.85 38.64 193.98 38.63 193.08 38.63 C192.15 38.64 191.23 38.64 190.27 38.65 C187.16 38.66 184.04 38.66 180.93 38.66 C178.7 38.67 176.47 38.68 174.23 38.69 C168.17 38.71 162.1 38.72 156.04 38.72 C152.25 38.73 148.45 38.73 144.66 38.74 C134.16 38.76 123.66 38.78 113.16 38.78 C112.15 38.78 112.15 38.78 111.12 38.78 C109.76 38.78 108.4 38.78 107.04 38.78 C106.36 38.78 105.68 38.78 104.99 38.78 C104.31 38.78 103.63 38.78 102.94 38.78 C91.98 38.79 81.02 38.81 70.06 38.85 C58.79 38.89 47.53 38.91 36.27 38.91 C29.95 38.91 23.63 38.92 17.31 38.95 C11.36 38.97 5.42 38.97 -0.53 38.96 C-2.71 38.96 -4.89 38.96 -7.07 38.98 C-28.59 39.13 -28.59 39.13 -35.85 33.36 C-39.91 29.3 -40.97 25.73 -41.16 20.11 C-41.09 14.2 -38.95 9.74 -35.08 5.35 C-26.55 -2.28 -10.69 -0.05 0 0 Z " fill="#000002" transform="translate(119.84814453125,628.6435546875)"/>
<path d="M0 0 C6.29 2.46 10.67 6.64 15.31 11.44 C16.29 12.43 16.29 12.43 17.28 13.45 C24.55 21.3 28.96 30.2 32.31 40.28 C32.66 41.3 33.01 42.32 33.37 43.38 C34.51 46.71 35.63 50.04 36.75 53.38 C37.55 55.72 38.35 58.07 39.15 60.41 C40.77 65.16 42.39 69.92 44.01 74.67 C46.95 83.32 49.95 91.93 52.97 100.55 C54.5 104.9 56.02 109.25 57.54 113.61 C57.99 114.91 57.99 114.91 58.46 116.25 C61.9 126.1 65.31 135.96 68.73 145.82 C74.56 162.63 80.39 179.44 86.25 196.25 C86.56 197.14 86.87 198.02 87.19 198.94 C90.25 207.72 93.32 216.51 96.47 225.27 C96.71 225.94 96.95 226.61 97.2 227.3 C98.3 230.37 99.41 233.43 100.52 236.5 C101.08 238.05 101.08 238.05 101.65 239.63 C101.98 240.52 102.3 241.41 102.63 242.32 C103.31 244.44 103.31 244.44 103.31 246.44 C93.12 247.34 93.12 247.34 89.2 245.38 C86.89 243.42 84.94 241.18 82.98 238.86 C76.68 231.39 69.61 224.63 62.69 217.75 C61.36 216.43 60.04 215.11 58.72 213.79 C56.29 211.38 53.86 208.96 51.43 206.54 C48.72 203.84 46.01 201.14 43.31 198.44 C44.53 195.9 45.84 193.62 47.38 191.25 C49.71 187.09 50.8 183.22 50.31 178.44 C49.26 175.67 48 173.18 46.54 170.6 C45.31 168.44 45.31 168.44 44.31 165.44 C42.75 165.14 41.18 164.91 39.61 164.72 C35.81 163.66 34.62 162.97 32.61 159.52 C31.37 156.13 30.27 152.76 29.29 149.29 C28.61 146.87 27.88 144.48 27.13 142.08 C26.34 139.51 25.54 136.95 24.76 134.38 C22.13 125.69 19.15 117.13 16.12 108.56 C14.53 104.09 12.97 99.61 11.4 95.14 C11.07 94.21 10.75 93.29 10.42 92.34 C7.78 84.81 5.19 77.26 2.6 69.71 C1.4 66.2 0.19 62.69 -1.01 59.19 C-1.78 56.93 -2.56 54.67 -3.32 52.41 C-13.22 22.9 -13.22 22.9 -30.69 -2.56 C-22.46 -6.68 -8.27 -2.56 0 0 Z " fill="#76CEF7" transform="translate(980.6875,365.5625)"/>
<path d="M0 0 C10.34 3.57 17.08 11.18 21.77 20.8 C24.46 27.83 25.4 35.33 26.64 42.73 C26.96 44.61 27.29 46.5 27.62 48.38 C28.35 52.57 29.07 56.75 29.79 60.94 C31.02 68.12 32.29 75.29 33.56 82.45 C34.57 88.15 35.57 93.85 36.58 99.55 C36.95 101.65 37.32 103.76 37.69 105.87 C38.4 109.85 39.09 113.84 39.79 117.83 C40 119.02 40.21 120.2 40.43 121.42 C41.56 127.95 42.47 134.44 43.01 141.04 C35.2 141.19 27.39 141.3 19.58 141.37 C16.92 141.4 14.27 141.44 11.62 141.49 C7.79 141.56 3.97 141.6 0.14 141.62 C-1.63 141.67 -1.63 141.67 -3.43 141.72 C-11.15 141.72 -16.24 140.37 -21.99 135.04 C-27.03 127.64 -26.11 118.54 -26.01 109.95 C-26 108.75 -25.99 107.55 -25.98 106.31 C-25.95 103.04 -25.92 99.77 -25.89 96.49 C-25.85 93.06 -25.82 89.63 -25.8 86.21 C-25.74 79.72 -25.68 73.24 -25.61 66.75 C-25.54 59.37 -25.48 51.98 -25.41 44.6 C-25.28 29.41 -25.14 14.22 -24.99 -0.96 C-18.02 -4.44 -7.19 -1.86 0 0 Z " fill="#4F4C54" transform="translate(843.98828125,469.9609375)"/>
<path d="M0 0 C1.46 -0 2.92 -0.01 4.37 -0.01 C8.31 -0.02 12.25 -0.01 16.18 0 C20.31 0.01 24.44 0.01 28.57 0.01 C35.5 0.01 42.43 0.02 49.37 0.04 C57.37 0.06 65.37 0.06 73.38 0.05 C81.09 0.05 88.81 0.05 96.52 0.07 C99.8 0.07 103.08 0.07 106.35 0.07 C110.21 0.07 114.07 0.08 117.93 0.09 C119.34 0.1 120.76 0.1 122.17 0.09 C135.9 0.07 135.9 0.07 141.41 2.37 C144.16 5.18 144.16 5.18 146.41 8.37 C146.99 9.16 147.57 9.94 148.16 10.75 C150.64 15.95 150.91 20.52 149.41 26 C147.62 30.75 144.76 33.8 140.41 36.37 C136.16 38.02 132.63 38.62 128.09 38.63 C126.21 38.64 126.21 38.64 124.3 38.65 C122.93 38.65 121.55 38.65 120.18 38.65 C118.72 38.65 117.27 38.66 115.81 38.66 C111.87 38.68 107.92 38.68 103.98 38.67 C100.68 38.67 97.38 38.68 94.09 38.68 C86.3 38.69 78.52 38.69 70.74 38.69 C62.72 38.68 54.7 38.69 46.69 38.72 C39.79 38.73 32.9 38.74 26.01 38.74 C21.89 38.73 17.78 38.74 13.67 38.75 C9.8 38.76 5.93 38.76 2.06 38.75 C0.64 38.75 -0.77 38.75 -2.19 38.76 C-11.68 38.81 -19.65 38.6 -27.03 31.93 C-28.01 31.07 -28.01 31.07 -29.02 30.19 C-32.13 26.59 -31.87 22.24 -31.8 17.68 C-31.35 12.85 -29.38 9.4 -26.46 5.62 C-18.64 -0.5 -9.53 -0.06 0 0 Z " fill="#000002" transform="translate(110.58837890625,568.627685546875)"/>
<path d="M0 0 C5.13 4.81 8.7 10.84 10.92 17.49 C11 20.22 11.03 22.93 11.02 25.66 C11.01 26.45 11.01 27.25 11.01 28.07 C11.01 30.61 10.99 33.14 10.98 35.68 C10.98 37.4 10.97 39.12 10.97 40.84 C10.96 45.06 10.94 49.28 10.92 53.49 C3.52 53.54 -3.88 53.57 -11.27 53.6 C-14.71 53.61 -18.14 53.62 -21.58 53.64 C-25.52 53.67 -29.47 53.68 -33.42 53.69 C-34.65 53.7 -35.89 53.71 -37.16 53.72 C-38.31 53.72 -39.45 53.72 -40.62 53.72 C-41.63 53.72 -42.64 53.73 -43.68 53.73 C-46.08 53.49 -46.08 53.49 -48.08 51.49 C-48.34 48.84 -48.34 48.84 -48.35 45.49 C-48.35 44.27 -48.35 43.06 -48.36 41.8 C-48.35 40.52 -48.34 39.25 -48.33 37.93 C-48.34 36.68 -48.35 35.43 -48.36 34.14 C-48.33 22.62 -47.34 12.28 -39.22 3.48 C-28.22 -6.67 -12.6 -9.13 0 0 Z " fill="#D74751" transform="translate(893.08203125,271.5078125)"/>
<path d="M0 0 C6.56 5.79 10.32 11.73 11.44 20.38 C10.58 27.5 8.1 34 2.62 38.82 C-3.44 43.25 -9.72 44.05 -17 43 C-25.03 40.4 -30.12 35.84 -34.38 28.69 C-36.05 21.5 -35.52 14.53 -32 8 C-25.05 -2.54 -11.11 -6.68 0 0 Z " fill="#F2F0F0" transform="translate(972,893)"/>
<path d="M0 0 C5.19 5.19 8.41 10.99 8.69 18.38 C8.6 24.59 7.09 29.34 3.31 34.31 C-3.01 39.76 -8.56 41.7 -16.84 41.58 C-24.13 40.89 -29.16 36.65 -34.05 31.45 C-37.54 26.89 -37.92 22.42 -37.56 16.81 C-36.36 8.95 -32.91 3.72 -26.77 -1.28 C-18.11 -7.15 -8.31 -5.22 0 0 Z " fill="#F1EFF0" transform="translate(275.6875,894.6875)"/>
<path d="M0 0 C0.99 0.33 1.98 0.66 3 1 C2.01 1.33 1.02 1.66 0 2 C0 1.34 0 0.68 0 0 Z " fill="#000002" transform="translate(340,1002)"/>
<path d="" fill="#000002" transform="translate(0,0)"/>
<path d="" fill="#AEE4F5" transform="translate(0,0)"/>
<path d="" fill="#AEE4F5" transform="translate(0,0)"/>
<path d="" fill="#F2F0F0" transform="translate(0,0)"/>
<path d="" fill="#000002" transform="translate(0,0)"/>
</svg>
